# xmcd CD database file
#
# Track frame offsets:
#	183
#	25008
#	51653
#	80705
#	125293
#	153743
#	185218
#	211245
#	259985
#	290358
#	314088
#
# Disc length: 4662 seconds
#
# Revision: 0
# Processed by: cddbd v1.5.1PL0 Copyright (c) Steve Scherf et al.
# Submitted via: CDex 1.51
#
DISCID=ac12340b
DTITLE=Cedar Walton - Off Minor
DYEAR=1990
DGENRE=Jazz
TTITLE0=Off Minor
TTITLE1=Pannonica
TTITLE2=Stablemates
TTITLE3=Lament
TTITLE4=N.P.S.
TTITLE5=My Old Flame
TTITLE6=St. Thomas
TTITLE7=Hagy
TTITLE8=Blues for Alberto
TTITLE9=I've Grown Accostumed to Your Face
TTITLE10=Ruby My Dear
EXTD=YEAR: 1990
EXTT0=
EXTT1=
EXTT2=
EXTT3=
EXTT4=
EXTT5=
EXTT6=
EXTT7=
EXTT8=
EXTT9=
EXTT10=
PLAYORDER=
